<svg xmlns="http://www.w3.org/2000/svg" viewBox="0 0 54.838 54.838" width="512" height="512"><g fill="#FFF"><path d="M54.475 19.032c-2.279-8.706-8.104-7.182-17.757-4.656-1.453.38-3.448.617-5.561.867-1.761.209-3.627.435-5.438.766-.648-.663-1.32-1.381-2.023-2.136-2.628-2.827-5.607-6.031-8.739-7.65-4.826-2.496-8.75-1.604-12.347 2.809-4.486 5.503-3.07 14.516 3.314 21.605-.086.391-.164.793-.227 1.216-.594 4.027 1.003 8.108 4.499 11.492 3.407 3.298 8.234 5.549 13.592 6.34 1.381.204 2.756.305 4.109.305 3.896 0 7.607-.835 10.735-2.449 4.324-2.23 7.032-5.676 7.626-9.703.143-.966.195-1.839.172-2.641 6.376-4.201 9.531-10.487 8.045-16.165zM6.614 28.389C1.561 22.209.489 14.8 4.161 10.295c1.898-2.328 3.734-3.454 5.832-3.454 1.236 0 2.563.391 4.046 1.158 2.823 1.46 5.676 4.528 8.193 7.236.373.401.74.796 1.099 1.177-1.495.371-2.745.811-3.789 1.332-2.746 1.369-4.436 3.144-5.144 5.41-.057.005-.107.017-.163.023-.895.09-1.717.252-2.468.488l-.069.022c-1.591.514-2.861 1.365-3.828 2.575l-.052.068a8.243 8.243 0 0 0-.582.849c-.028.047-.059.091-.086.138-.173.302-.332.62-.478.956-.017.04-.04.075-.058.116zm37.666 9.156c-.498 3.372-2.829 6.291-6.564 8.217-3.845 1.983-8.689 2.671-13.635 1.943-4.948-.73-9.384-2.789-12.493-5.798-3.02-2.923-4.409-6.391-3.911-9.763.082-.558.186-1.076.31-1.561.106-.415.231-.8.369-1.164l.047-.125a7.82 7.82 0 0 1 .474-.99l.057-.096a6.12 6.12 0 0 1 .606-.855l.022-.023a5.48 5.48 0 0 1 .763-.73l.005-.004c.266-.208.558-.389.867-.553l.104-.056a6.986 6.986 0 0 1 1.124-.442 9.33 9.33 0 0 1 1.103-.262c.05-.009.103-.015.153-.023.412-.066.842-.117 1.304-.145.211-.013.449-.005.677-.005.259-.002.523.005.79.019.274.016.557.037.856.068.124.012.246.022.37.037.102.012.201.02.304.034.27.036.545.084.82.131.158.027.314.049.473.079.251.047.505.102.758.156.179.038.356.072.535.112.382.087.766.18 1.149.277.041.01.083.019.124.03 1.319.337 2.636.724 3.892 1.09 2.106.615 4.096 1.195 5.718 1.435 5.221.77 8.548 1.372 10.527 2.451l.039.021c1.528.845 2.238 1.982 2.386 3.718l.041.478c.016.655-.033 1.411-.164 2.299zm1.825-4.54c-.006-.019-.014-.035-.02-.053a6.146 6.146 0 0 0-.223-.598 5.71 5.71 0 0 0-.42-.823c-.031-.05-.067-.097-.1-.146a6.083 6.083 0 0 0-1.55-1.576l-.101-.073c-.107-.074-.199-.156-.313-.226-.117-.072-.251-.133-.374-.201l-.007-.004c-.675-.373-1.445-.691-2.322-.968-.133-.043-.262-.088-.399-.129-.139-.041-.287-.08-.432-.119a27.697 27.697 0 0 0-.996-.256l-.111-.026c-2.014-.469-4.361-.82-6.991-1.208a17.45 17.45 0 0 1-1.193-.224l-.017-.004c-1.262-.279-2.722-.706-4.247-1.152-2.904-.849-6.104-1.781-9.05-2.043-.132-.014-.266-.029-.394-.04.653-1.43 1.911-2.58 3.875-3.56 2.842-1.417 7.003-1.911 10.674-2.346 2.183-.258 4.245-.503 5.832-.918 10.515-2.752 13.619-3.254 15.316 3.228 1.204 4.605-1.304 9.771-6.437 13.465z"/><path d="M13.958 32.543a1 1 0 1 0-1.941.485l1 4a1 1 0 0 0 1.941-.486l-1-3.999zm22-13a1 1 0 1 0-1.941.485l1 4a1 1 0 0 0 1.941-.486l-1-3.999zm-5.526 22.118l-3.426 2.294a1 1 0 0 0 1.112 1.662l3.426-2.294a1 1 0 0 0-1.112-1.662zM9.989 14.786a.995.995 0 0 0 .555-.169l3.426-2.294a1 1 0 0 0-1.112-1.662l-3.426 2.294a1 1 0 0 0 .557 1.831zm20.274 20.693a1.001 1.001 0 0 0 .264-1.965l-3.976-1.092a1 1 0 0 0-.529 1.929l3.976 1.092a.972.972 0 0 0 .265.036zM9.474 21.986a1 1 0 0 0 .535-1.845l-3.487-2.2a1 1 0 1 0-1.067 1.691l3.487 2.2a.992.992 0 0 0 .532.154zm38.895 1.059l-3.053 2.771a1 1 0 0 0 1.343 1.482l3.053-2.771a1 1 0 0 0-1.343-1.482z"/></g></svg>